<svg width="32" height="32" viewBox="0 0 32 32" fill="none" xmlns="http://www.w3.org/2000/svg">
<path fill-rule="evenodd" clip-rule="evenodd" d="M17.5902 7.41426V9.31783H19.5902V5V4H18.5902H14.2724V6H16.176L14.279 7.89706L15.6933 9.31125L17.5902 7.41426ZM8.03222 13.3831L7.37622 12.677L8.05768 11.9954L10.7253 9.32734L11.4324 8.62012L12.1396 9.32728L16.5174 13.7051L22.1124 9.87802L22.7973 9.40952L23.3841 9.99629L27.5017 14.1139C30.567 17.1792 30.7405 22.093 27.8988 25.3668C25.7332 27.8619 22.2888 28.8262 19.1424 27.8181L18.0611 27.4717L18.0547 27.4696L12.0784 25.5994L11.4703 25.4091L11.3859 24.7776L11.2326 23.631C11.0295 22.1123 12.1295 20.7291 13.655 20.5851L14.637 20.4924L8.03222 13.3831ZM15.6899 15.7061L11.4325 11.4487L10.1535 12.7279L17.4825 20.6168L16.8438 22.293L13.8429 22.5763C13.4475 22.6136 13.1623 22.9722 13.2149 23.3659L13.2838 23.881L18.6584 25.563L18.6584 25.5629L18.6649 25.565L19.7526 25.9135C22.137 26.6774 24.7472 25.9467 26.3884 24.0558C28.5419 21.5748 28.4105 17.8511 26.0875 15.5281L22.5567 11.9973L16.9616 15.8244L16.2767 16.2929L15.6899 15.7061ZM5 16.2574V18.1609L6.89694 16.2639L8.31118 17.6781L6.41417 19.5752H8.31783V21.5752H4H3V20.5752V16.2574H5ZM8.31783 6H6.41426L8.31125 7.89694L6.89706 9.31118L5 7.41417V9.31783H3V5V4H4H8.31783V6Z" fill="black"/>
</svg>
