<svg width="24" height="24" viewBox="0 0 24 24" fill="none" xmlns="http://www.w3.org/2000/svg">
<path d="M15.9999 21.4999C15.6025 21.4984 15.2216 21.3403 14.9399 21.0599L6.93993 13.0599C6.65656 12.7799 6.49707 12.3982 6.49707 11.9999C6.49707 11.6015 6.65656 11.2198 6.93993 10.9399L14.9399 2.93986C15.3139 2.53855 15.877 2.37336 16.4085 2.50909C16.94 2.64482 17.355 3.05981 17.4907 3.59128C17.6264 4.12275 17.4612 4.68592 17.0599 5.05986L10.1199 11.9999L17.0599 18.9399C17.3433 19.2198 17.5028 19.6015 17.5028 19.9999C17.5028 20.3982 17.3433 20.7799 17.0599 21.0599C16.7783 21.3403 16.3974 21.4984 15.9999 21.4999Z" fill="black"/>
</svg>
