<svg width="32" height="32" viewBox="0 0 32 32" fill="none" xmlns="http://www.w3.org/2000/svg">
<path fill-rule="evenodd" clip-rule="evenodd" d="M10.9472 3.78575L7.15857 4.16376L7.35711 6.15388L9.05181 5.9848L6.46518 9.89752L6.27989 8.77588L4.30664 9.10189L4.90732 12.7379L5.06116 13.6692L5.99973 13.5693L9.54246 13.1924L9.33088 11.2036L7.8985 11.356L10.6129 7.24998L11.0324 8.99065L12.9767 8.52205L12.0187 4.54651L11.8145 3.69922L10.9472 3.78575ZM15.114 6.54596L15.1494 5.58278L16.1132 5.5827L19.8683 5.58239L20.8684 5.5823V6.58239V12.7406L27.4956 13.9842L28.3111 14.1372V14.967V20.7628C28.3111 25.08 24.9731 28.6624 20.6667 28.9668C17.3847 29.1987 14.2803 27.4523 12.7746 24.5268L12.2574 23.5219L12.2543 23.5159L9.36459 17.9937L9.06919 17.4291L9.45603 16.9229L10.15 16.0146C11.0803 14.7971 12.8361 14.5969 14.0166 15.5737L14.7592 16.1883L15.114 6.54596ZM18.8684 13.5705V7.58249L17.0772 7.58264L16.6833 18.2882L15.0465 19.0219L12.7416 17.1146C12.4355 16.8614 11.9803 16.9133 11.7391 17.2289L11.432 17.6309L14.0294 22.5946L14.0294 22.5946L14.0325 22.6006L14.5528 23.6115C15.6924 25.8255 18.0419 27.1473 20.5257 26.9717C23.7849 26.7414 26.3111 24.0302 26.3111 20.7628V15.7969L19.684 14.5533L18.8684 14.4003L18.8684 13.5705Z" fill="black"/>
</svg>
